<svg xmlns="http://www.w3.org/2000/svg" viewBox="0 0 576 512">
  <defs>
    <linearGradient id="bg" x1="0" x2="1" y1="0" y2="1">
      <stop offset="0%" stop-color="#111827"/>
      <stop offset="100%" stop-color="#1f2937"/>
    </linearGradient>
  </defs>
  <rect width="576" height="512" rx="72" fill="url(#bg)"/>
  <path fill="#22c55e" d="M104.9 143.5c12.5-12.5 32.8-12.5 45.3 0l112 112c12.5 12.5 12.5 32.8 0 45.3l-112 112c-12.5 12.5-32.8 12.5-45.3 0s-12.5-32.8 0-45.3L194.7 288 104.9 198.2c-12.5-12.5-12.5-32.8 0-45.3z"/>
  <path fill="#e5e7eb" d="M304 352H432c17.7 0 32 14.3 32 32s-14.3 32-32 32H304c-17.7 0-32-14.3-32-32s14.3-32 32-32z"/>
</svg>
